REM DIRINDEX 1\2\4\18,1\2\4\19,1\2\5\20,1\2\5\21,1\2\6\22,1\2\6\23,1\2\7\24,1\2\7\25,1\2\8\26,1\2\8\27,1\2\9\28,1\2\9\29,1\2\10\30,1\3\11\31,1\3\11\32,1\3\11\33,1\3\11\34,1\3\11\35,1\3\12\36,1\3\12\37,1\3\12\38,1\3\12\39,1\3\12\40,1\3\13\41,1\3\13\42,1\3\13\43,1\3\13\44,1\3\13\45,1\3\14\46,1\3\14\47,1\3\14\48,1\3\14\49,1\3\15\50,1\3\15\51,1\3\15\52,1\3\15\53,1\3\15\54,1\3\16\55,1\3\16\56,1\3\16\57,1\3\16\58,1\3\16\59,1\3\17\60,1\3\17\61
REM DIRNAME "folder01","folder02","folder03","folder04","folder05","folder06","folder07","folder08","folder09","folder10","folder11","folder12","folder13","folder14","folder15","folder16","folder17","folder18","folder19","folder20","folder21","folder22","folder23","folder24","folder25","folder26","folder27","folder28","folder29","folder30","folder31","folder32","folder33","folder34","folder35","folder36","folder37","folder38","folder39","folder40","folder41","folder42","folder43","folder44","folder45","folder46","folder47","folder48","folder49","folder50","folder51","folder52","folder53","folder54","folder55","folder56","folder57","folder58","folder59","folder60","folder61"
TITLE ""
FILE "TOEIC LR Kinnojyukugo_04.mp3" MP3
  TRACK 01 AUDIO
    TITLE "0:"
    INDEX 01 00:00:00
  TRACK 02 AUDIO
    TITLE "31:cjc160_2629"
    INDEX 01 00:00:16
  TRACK 03 AUDIO
    TITLE "0:"
    INDEX 01 00:01:35
  TRACK 04 AUDIO
    TITLE "32:cjc160_2630"
    INDEX 01 00:01:74
  TRACK 05 AUDIO
    TITLE "0:"
    INDEX 01 00:03:30
  TRACK 06 AUDIO
    TITLE "33:cjc160_2631"
    INDEX 01 00:03:62
  TRACK 07 AUDIO
    TITLE "0:"
    INDEX 01 00:06:13
  TRACK 08 AUDIO
    TITLE "34:cjc160_2632"
    INDEX 01 00:06:50
  TRACK 09 AUDIO
    TITLE "0:"
    INDEX 01 00:09:01
  TRACK 10 AUDIO
    TITLE "35:cjc160_2633"
    INDEX 01 00:09:25
  TRACK 11 AUDIO
    TITLE "0:"
    INDEX 01 00:11:51
  TRACK 12 AUDIO
    TITLE "31:cjc160_2634"
    INDEX 01 00:12:51
  TRACK 13 AUDIO
    TITLE "0:"
    INDEX 01 00:14:03
  TRACK 14 AUDIO
    TITLE "32:cjc160_2635"
    INDEX 01 00:14:42
  TRACK 15 AUDIO
    TITLE "0:"
    INDEX 01 00:15:53
  TRACK 16 AUDIO
    TITLE "33:cjc160_2636"
    INDEX 01 00:16:15
  TRACK 17 AUDIO
    TITLE "0:"
    INDEX 01 00:18:24
  TRACK 18 AUDIO
    TITLE "34:cjc160_2637"
    INDEX 01 00:18:63
  TRACK 19 AUDIO
    TITLE "0:"
    INDEX 01 00:20:60
  TRACK 20 AUDIO
    TITLE "35:cjc160_2638"
    INDEX 01 00:21:10
  TRACK 21 AUDIO
    TITLE "0:"
    INDEX 01 00:23:07
  TRACK 22 AUDIO
    TITLE "31:cjc160_2639"
    INDEX 01 00:24:07
  TRACK 23 AUDIO
    TITLE "0:"
    INDEX 01 00:25:24
  TRACK 24 AUDIO
    TITLE "32:cjc160_2640"
    INDEX 01 00:25:59
  TRACK 25 AUDIO
    TITLE "0:"
    INDEX 01 00:28:14
  TRACK 26 AUDIO
    TITLE "33:cjc160_2641"
    INDEX 01 00:28:54
  TRACK 27 AUDIO
    TITLE "0:"
    INDEX 01 00:31:62
  TRACK 28 AUDIO
    TITLE "34:cjc160_2642"
    INDEX 01 00:32:36
  TRACK 29 AUDIO
    TITLE "0:"
    INDEX 01 00:36:02
  TRACK 30 AUDIO
    TITLE "35:cjc160_2643"
    INDEX 01 00:36:28
  TRACK 31 AUDIO
    TITLE "0:"
    INDEX 01 00:39:69
  TRACK 32 AUDIO
    TITLE "31:cjc160_2644"
    INDEX 01 00:40:71
  TRACK 33 AUDIO
    TITLE "0:"
    INDEX 01 00:42:28
  TRACK 34 AUDIO
    TITLE "32:cjc160_2645"
    INDEX 01 00:42:66
  TRACK 35 AUDIO
    TITLE "0:"
    INDEX 01 00:43:71
  TRACK 36 AUDIO
    TITLE "33:cjc160_2646"
    INDEX 01 00:44:39
  TRACK 37 AUDIO
    TITLE "0:"
    INDEX 01 00:46:32
  TRACK 38 AUDIO
    TITLE "34:cjc160_2647"
    INDEX 01 00:47:00
  TRACK 39 AUDIO
    TITLE "0:"
    INDEX 01 00:48:52
  TRACK 40 AUDIO
    TITLE "35:cjc160_2648"
    INDEX 01 00:49:05
  TRACK 41 AUDIO
    TITLE "0:"
    INDEX 01 00:50:57
  TRACK 42 AUDIO
    TITLE "31:cjc160_2649"
    INDEX 01 00:51:59
  TRACK 43 AUDIO
    TITLE "0:"
    INDEX 01 00:53:01
  TRACK 44 AUDIO
    TITLE "32:cjc160_2650"
    INDEX 01 00:53:38
  TRACK 45 AUDIO
    TITLE "0:"
    INDEX 01 00:55:15
  TRACK 46 AUDIO
    TITLE "33:cjc160_2651"
    INDEX 01 00:55:56
  TRACK 47 AUDIO
    TITLE "0:"
    INDEX 01 00:59:19
  TRACK 48 AUDIO
    TITLE "34:cjc160_2652"
    INDEX 01 00:59:58
  TRACK 49 AUDIO
    TITLE "0:"
    INDEX 01 01:02:29
  TRACK 50 AUDIO
    TITLE "35:cjc160_2653"
    INDEX 01 01:02:58
  TRACK 51 AUDIO
    TITLE "0:"
    INDEX 01 01:05:31
  TRACK 52 AUDIO
    TITLE "31:cjc160_2654"
    INDEX 01 01:06:33
  TRACK 53 AUDIO
    TITLE "0:"
    INDEX 01 01:07:56
  TRACK 54 AUDIO
    TITLE "32:cjc160_2655"
    INDEX 01 01:08:18
  TRACK 55 AUDIO
    TITLE "0:"
    INDEX 01 01:09:41
  TRACK 56 AUDIO
    TITLE "33:cjc160_2656"
    INDEX 01 01:10:07
  TRACK 57 AUDIO
    TITLE "0:"
    INDEX 01 01:12:24
  TRACK 58 AUDIO
    TITLE "34:cjc160_2657"
    INDEX 01 01:12:63
  TRACK 59 AUDIO
    TITLE "0:"
    INDEX 01 01:15:18
  TRACK 60 AUDIO
    TITLE "35:cjc160_2658"
    INDEX 01 01:15:45
  TRACK 61 AUDIO
    TITLE "0:"
    INDEX 01 01:18:01
  TRACK 62 AUDIO
    TITLE "31:cjc160_2659"
    INDEX 01 01:19:02
  TRACK 63 AUDIO
    TITLE "0:"
    INDEX 01 01:21:54
  TRACK 64 AUDIO
    TITLE "32:cjc160_2660"
    INDEX 01 01:22:24
  TRACK 65 AUDIO
    TITLE "0:"
    INDEX 01 01:23:63
  TRACK 66 AUDIO
    TITLE "33:cjc160_2661"
    INDEX 01 01:24:25
  TRACK 67 AUDIO
    TITLE "0:"
    INDEX 01 01:27:29
  TRACK 68 AUDIO
    TITLE "34:cjc160_2662"
    INDEX 01 01:27:68
  TRACK 69 AUDIO
    TITLE "0:"
    INDEX 01 01:30:45
  TRACK 70 AUDIO
    TITLE "35:cjc160_2663"
    INDEX 01 01:30:70
  TRACK 71 AUDIO
    TITLE "0:"
    INDEX 01 01:33:47
  TRACK 72 AUDIO
    TITLE "31:cjc160_2664"
    INDEX 01 01:34:47
  TRACK 73 AUDIO
    TITLE "0:"
    INDEX 01 01:35:68
  TRACK 74 AUDIO
    TITLE "32:cjc160_2665"
    INDEX 01 01:36:40
  TRACK 75 AUDIO
    TITLE "0:"
    INDEX 01 01:39:30
  TRACK 76 AUDIO
    TITLE "33:cjc160_2666"
    INDEX 01 01:39:69
  TRACK 77 AUDIO
    TITLE "0:"
    INDEX 01 01:41:70
  TRACK 78 AUDIO
    TITLE "34:cjc160_2667"
    INDEX 01 01:42:34
  TRACK 79 AUDIO
    TITLE "0:"
    INDEX 01 01:44:69
  TRACK 80 AUDIO
    TITLE "35:cjc160_2668"
    INDEX 01 01:45:17
  TRACK 81 AUDIO
    TITLE "0:"
    INDEX 01 01:47:49
  TRACK 82 AUDIO
    TITLE "31:cjc160_2669"
    INDEX 01 01:48:51
  TRACK 83 AUDIO
    TITLE "0:"
    INDEX 01 01:50:12
  TRACK 84 AUDIO
    TITLE "32:cjc160_2670"
    INDEX 01 01:50:50
  TRACK 85 AUDIO
    TITLE "0:"
    INDEX 01 01:52:21
  TRACK 86 AUDIO
    TITLE "33:cjc160_2671"
    INDEX 01 01:52:68
  TRACK 87 AUDIO
    TITLE "0:"
    INDEX 01 01:55:25
  TRACK 88 AUDIO
    TITLE "34:cjc160_2672"
    INDEX 01 01:55:63
  TRACK 89 AUDIO
    TITLE "0:"
    INDEX 01 01:57:40
  TRACK 90 AUDIO
    TITLE "35:cjc160_2673"
    INDEX 01 01:57:65
  TRACK 91 AUDIO
    TITLE "0:"
    INDEX 01 01:59:43
  TRACK 92 AUDIO
    TITLE "31:cjc160_2674"
    INDEX 01 02:00:42
  TRACK 93 AUDIO
    TITLE "0:"
    INDEX 01 02:01:67
  TRACK 94 AUDIO
    TITLE "32:cjc160_2675"
    INDEX 01 02:02:27
  TRACK 95 AUDIO
    TITLE "0:"
    INDEX 01 02:03:29
  TRACK 96 AUDIO
    TITLE "33:cjc160_2676"
    INDEX 01 02:03:66
  TRACK 97 AUDIO
    TITLE "0:"
    INDEX 01 02:07:03
  TRACK 98 AUDIO
    TITLE "34:cjc160_2677"
    INDEX 01 02:07:42
  TRACK 99 AUDIO
    TITLE "0:"
    INDEX 01 02:10:03
  TRACK 100 AUDIO
    TITLE "35:cjc160_2678"
    INDEX 01 02:10:33
  TRACK 101 AUDIO
    TITLE "0:"
    INDEX 01 02:12:69
  TRACK 102 AUDIO
    TITLE "31:cjc160_2679"
    INDEX 01 02:13:72
  TRACK 103 AUDIO
    TITLE "0:"
    INDEX 01 02:15:22
  TRACK 104 AUDIO
    TITLE "32:cjc160_2680"
    INDEX 01 02:15:57
  TRACK 105 AUDIO
    TITLE "0:"
    INDEX 01 02:18:73
  TRACK 106 AUDIO
    TITLE "33:cjc160_2681"
    INDEX 01 02:19:40
  TRACK 107 AUDIO
    TITLE "0:"
    INDEX 01 02:21:34
  TRACK 108 AUDIO
    TITLE "34:cjc160_2682"
    INDEX 01 02:21:72
  TRACK 109 AUDIO
    TITLE "0:"
    INDEX 01 02:23:35
  TRACK 110 AUDIO
    TITLE "35:cjc160_2683"
    INDEX 01 02:23:59
  TRACK 111 AUDIO
    TITLE "0:"
    INDEX 01 02:25:22
  TRACK 112 AUDIO
    TITLE "31:cjc160_2684"
    INDEX 01 02:26:22
  TRACK 113 AUDIO
    TITLE "0:"
    INDEX 01 02:27:43
  TRACK 114 AUDIO
    TITLE "32:cjc160_2685"
    INDEX 01 02:28:05
  TRACK 115 AUDIO
    TITLE "0:"
    INDEX 01 02:30:63
  TRACK 116 AUDIO
    TITLE "33:cjc160_2686"
    INDEX 01 02:31:23
  TRACK 117 AUDIO
    TITLE "0:"
    INDEX 01 02:34:21
  TRACK 118 AUDIO
    TITLE "34:cjc160_2687"
    INDEX 01 02:34:63
  TRACK 119 AUDIO
    TITLE "0:"
    INDEX 01 02:37:49
  TRACK 120 AUDIO
    TITLE "35:cjc160_2688"
    INDEX 01 02:38:04
  TRACK 121 AUDIO
    TITLE "0:"
    INDEX 01 02:40:63
  TRACK 122 AUDIO
    TITLE "31:cjc160_2689"
    INDEX 01 02:41:63
  TRACK 123 AUDIO
    TITLE "0:"
    INDEX 01 02:43:24
  TRACK 124 AUDIO
    TITLE "32:cjc160_2690"
    INDEX 01 02:43:62
  TRACK 125 AUDIO
    TITLE "0:"
    INDEX 01 02:45:06
  TRACK 126 AUDIO
    TITLE "33:cjc160_2691"
    INDEX 01 02:45:49
  TRACK 127 AUDIO
    TITLE "0:"
    INDEX 01 02:47:61
  TRACK 128 AUDIO
    TITLE "34:cjc160_2692"
    INDEX 01 02:48:25
  TRACK 129 AUDIO
    TITLE "0:"
    INDEX 01 02:50:56
  TRACK 130 AUDIO
    TITLE "35:cjc160_2693"
    INDEX 01 02:51:04
  TRACK 131 AUDIO
    TITLE "0:"
    INDEX 01 02:53:36
  TRACK 132 AUDIO
    TITLE "31:cjc160_2694"
    INDEX 01 02:54:36
  TRACK 133 AUDIO
    TITLE "0:"
    INDEX 01 02:55:49
  TRACK 134 AUDIO
    TITLE "32:cjc160_2695"
    INDEX 01 02:56:21
  TRACK 135 AUDIO
    TITLE "0:"
    INDEX 01 02:57:44
  TRACK 136 AUDIO
    TITLE "33:cjc160_2696"
    INDEX 01 02:58:08
  TRACK 137 AUDIO
    TITLE "0:"
    INDEX 01 02:59:51
  TRACK 138 AUDIO
    TITLE "34:cjc160_2697"
    INDEX 01 03:00:15
  TRACK 139 AUDIO
    TITLE "0:"
    INDEX 01 03:02:00
  TRACK 140 AUDIO
    TITLE "35:cjc160_2698"
    INDEX 01 03:02:26
  TRACK 141 AUDIO
    TITLE "0:"
    INDEX 01 03:04:11
  TRACK 142 AUDIO
    TITLE "31:cjc160_2699"
    INDEX 01 03:05:10
  TRACK 143 AUDIO
    TITLE "0:"
    INDEX 01 03:06:61
  TRACK 144 AUDIO
    TITLE "32:cjc160_2700"
    INDEX 01 03:07:25
  TRACK 145 AUDIO
    TITLE "0:"
    INDEX 01 03:08:69
  TRACK 146 AUDIO
    TITLE "33:cjc160_2701"
    INDEX 01 03:09:37
  TRACK 147 AUDIO
    TITLE "0:"
    INDEX 01 03:12:04
  TRACK 148 AUDIO
    TITLE "34:cjc160_2702"
    INDEX 01 03:12:42
  TRACK 149 AUDIO
    TITLE "0:"
    INDEX 01 03:15:01
  TRACK 150 AUDIO
    TITLE "35:cjc160_2703"
    INDEX 01 03:15:24
  TRACK 151 AUDIO
    TITLE "0:"
    INDEX 01 03:17:58
  TRACK 152 AUDIO
    TITLE "31:cjc160_2704"
    INDEX 01 03:18:58
  TRACK 153 AUDIO
    TITLE "0:"
    INDEX 01 03:20:31
  TRACK 154 AUDIO
    TITLE "32:cjc160_2705"
    INDEX 01 03:20:63
  TRACK 155 AUDIO
    TITLE "0:"
    INDEX 01 03:24:47
  TRACK 156 AUDIO
    TITLE "33:cjc160_2706"
    INDEX 01 03:25:07
  TRACK 157 AUDIO
    TITLE "0:"
    INDEX 01 03:29:17
  TRACK 158 AUDIO
    TITLE "34:cjc160_2707"
    INDEX 01 03:29:56
  TRACK 159 AUDIO
    TITLE "0:"
    INDEX 01 03:33:01
  TRACK 160 AUDIO
    TITLE "35:cjc160_2708"
    INDEX 01 03:33:28
  TRACK 161 AUDIO
    TITLE "0:"
    INDEX 01 03:36:50
  TRACK 162 AUDIO
    TITLE "31:cjc160_2709"
    INDEX 01 03:37:53
  TRACK 163 AUDIO
    TITLE "0:"
    INDEX 01 03:38:66
  TRACK 164 AUDIO
    TITLE "32:cjc160_2710"
    INDEX 01 03:39:27
  TRACK 165 AUDIO
    TITLE "0:"
    INDEX 01 03:42:43
  TRACK 166 AUDIO
    TITLE "33:cjc160_2711"
    INDEX 01 03:43:07
  TRACK 167 AUDIO
    TITLE "0:"
    INDEX 01 03:45:39
  TRACK 168 AUDIO
    TITLE "34:cjc160_2712"
    INDEX 01 03:46:07
  TRACK 169 AUDIO
    TITLE "0:"
    INDEX 01 03:48:32
  TRACK 170 AUDIO
    TITLE "35:cjc160_2713"
    INDEX 01 03:48:57
  TRACK 171 AUDIO
    TITLE "0:"
    INDEX 01 03:51:06
  TRACK 172 AUDIO
    TITLE "31:cjc160_2714"
    INDEX 01 03:52:08
  TRACK 173 AUDIO
    TITLE "0:"
    INDEX 01 03:53:23
  TRACK 174 AUDIO
    TITLE "32:cjc160_2715"
    INDEX 01 03:53:62
  TRACK 175 AUDIO
    TITLE "0:"
    INDEX 01 03:55:26
  TRACK 176 AUDIO
    TITLE "33:cjc160_2716"
    INDEX 01 03:55:63
  TRACK 177 AUDIO
    TITLE "0:"
    INDEX 01 03:58:12
  TRACK 178 AUDIO
    TITLE "34:cjc160_2717"
    INDEX 01 03:58:50
  TRACK 179 AUDIO
    TITLE "0:"
    INDEX 01 04:01:03
  TRACK 180 AUDIO
    TITLE "35:cjc160_2718"
    INDEX 01 04:01:28
  TRACK 181 AUDIO
    TITLE "0:"
    INDEX 01 04:03:55
  TRACK 182 AUDIO
    TITLE "31:cjc160_2719"
    INDEX 01 04:04:54
  TRACK 183 AUDIO
    TITLE "0:"
    INDEX 01 04:05:71
  TRACK 184 AUDIO
    TITLE "32:cjc160_2720"
    INDEX 01 04:06:37
  TRACK 185 AUDIO
    TITLE "0:"
    INDEX 01 04:07:47
  TRACK 186 AUDIO
    TITLE "33:cjc160_2721"
    INDEX 01 04:08:11
  TRACK 187 AUDIO
    TITLE "0:"
    INDEX 01 04:10:04
  TRACK 188 AUDIO
    TITLE "34:cjc160_2722"
    INDEX 01 04:10:39
  TRACK 189 AUDIO
    TITLE "0:"
    INDEX 01 04:12:71
  TRACK 190 AUDIO
    TITLE "35:cjc160_2723"
    INDEX 01 04:13:20
  TRACK 191 AUDIO
    TITLE "0:"
    INDEX 01 04:15:52
  TRACK 192 AUDIO
    TITLE "31:cjc160_2724"
    INDEX 01 04:16:49
  TRACK 193 AUDIO
    TITLE "0:"
    INDEX 01 04:18:11
  TRACK 194 AUDIO
    TITLE "32:cjc160_2725"
    INDEX 01 04:18:50
  TRACK 195 AUDIO
    TITLE "0:"
    INDEX 01 04:21:25
  TRACK 196 AUDIO
    TITLE "33:cjc160_2726"
    INDEX 01 04:21:64
  TRACK 197 AUDIO
    TITLE "0:"
    INDEX 01 04:24:22
  TRACK 198 AUDIO
    TITLE "34:cjc160_2727"
    INDEX 01 04:24:61
  TRACK 199 AUDIO
    TITLE "0:"
    INDEX 01 04:27:39
  TRACK 200 AUDIO
    TITLE "35:cjc160_2728"
    INDEX 01 04:27:65
  TRACK 201 AUDIO
    TITLE "0:"
    INDEX 01 04:30:44
  TRACK 202 AUDIO
    TITLE "31:cjc160_2729"
    INDEX 01 04:31:45
  TRACK 203 AUDIO
    TITLE "0:"
    INDEX 01 04:33:03
  TRACK 204 AUDIO
    TITLE "32:cjc160_2730"
    INDEX 01 04:33:38
  TRACK 205 AUDIO
    TITLE "0:"
    INDEX 01 04:36:05
  TRACK 206 AUDIO
    TITLE "33:cjc160_2731"
    INDEX 01 04:36:46
  TRACK 207 AUDIO
    TITLE "0:"
    INDEX 01 04:39:04
  TRACK 208 AUDIO
    TITLE "34:cjc160_2732"
    INDEX 01 04:39:41
  TRACK 209 AUDIO
    TITLE "0:"
    INDEX 01 04:41:38
  TRACK 210 AUDIO
    TITLE "35:cjc160_2733"
    INDEX 01 04:41:63
  TRACK 211 AUDIO
    TITLE "0:"
    INDEX 01 04:43:60
  TRACK 212 AUDIO
    TITLE "31:cjc160_2734"
    INDEX 01 04:44:63
  TRACK 213 AUDIO
    TITLE "0:"
    INDEX 01 04:46:04
  TRACK 214 AUDIO
    TITLE "32:cjc160_2735"
    INDEX 01 04:46:41
  TRACK 215 AUDIO
    TITLE "0:"
    INDEX 01 04:47:58
  TRACK 216 AUDIO
    TITLE "33:cjc160_2736"
    INDEX 01 04:48:20
  TRACK 217 AUDIO
    TITLE "0:"
    INDEX 01 04:51:15
  TRACK 218 AUDIO
    TITLE "34:cjc160_2737"
    INDEX 01 04:51:52
  TRACK 219 AUDIO
    TITLE "0:"
    INDEX 01 04:54:40
  TRACK 220 AUDIO
    TITLE "35:cjc160_2738"
    INDEX 01 04:54:66
  TRACK 221 AUDIO
    TITLE "0:"
    INDEX 01 04:57:52
  TRACK 222 AUDIO
    TITLE "31:cjc160_2739"
    INDEX 01 04:58:52
  TRACK 223 AUDIO
    TITLE "0:"
    INDEX 01 05:00:51
  TRACK 224 AUDIO
    TITLE "32:cjc160_2740"
    INDEX 01 05:01:15
  TRACK 225 AUDIO
    TITLE "0:"
    INDEX 01 05:02:34
  TRACK 226 AUDIO
    TITLE "33:cjc160_2741"
    INDEX 01 05:02:73
  TRACK 227 AUDIO
    TITLE "0:"
    INDEX 01 05:05:26
  TRACK 228 AUDIO
    TITLE "34:cjc160_2742"
    INDEX 01 05:05:66
  TRACK 229 AUDIO
    TITLE "0:"
    INDEX 01 05:08:46
  TRACK 230 AUDIO
    TITLE "35:cjc160_2743"
    INDEX 01 05:08:70
  TRACK 231 AUDIO
    TITLE "0:"
    INDEX 01 05:11:51
  TRACK 232 AUDIO
    TITLE "31:cjc160_2744"
    INDEX 01 05:12:50
  TRACK 233 AUDIO
    TITLE "0:"
    INDEX 01 05:14:14
  TRACK 234 AUDIO
    TITLE "32:cjc160_2745"
    INDEX 01 05:14:53
  TRACK 235 AUDIO
    TITLE "0:"
    INDEX 01 05:16:07
  TRACK 236 AUDIO
    TITLE "33:cjc160_2746"
    INDEX 01 05:16:46
  TRACK 237 AUDIO
    TITLE "0:"
    INDEX 01 05:18:68
  TRACK 238 AUDIO
    TITLE "34:cjc160_2747"
    INDEX 01 05:19:32
  TRACK 239 AUDIO
    TITLE "0:"
    INDEX 01 05:21:72
  TRACK 240 AUDIO
    TITLE "35:cjc160_2748"
    INDEX 01 05:22:25
  TRACK 241 AUDIO
    TITLE "0:"
    INDEX 01 05:24:63
  TRACK 242 AUDIO
    TITLE "31:cjc160_2749"
    INDEX 01 05:25:62
  TRACK 243 AUDIO
    TITLE "0:"
    INDEX 01 05:27:48
  TRACK 244 AUDIO
    TITLE "32:cjc160_2750"
    INDEX 01 05:28:10
  TRACK 245 AUDIO
    TITLE "0:"
    INDEX 01 05:29:66
  TRACK 246 AUDIO
    TITLE "33:cjc160_2751"
    INDEX 01 05:30:32
  TRACK 247 AUDIO
    TITLE "0:"
    INDEX 01 05:33:52
  TRACK 248 AUDIO
    TITLE "34:cjc160_2752"
    INDEX 01 05:34:14
  TRACK 249 AUDIO
    TITLE "0:"
    INDEX 01 05:37:34
  TRACK 250 AUDIO
    TITLE "35:cjc160_2753"
    INDEX 01 05:37:60
  TRACK 251 AUDIO
    TITLE "0:"
    INDEX 01 05:41:05
  TRACK 252 AUDIO
    TITLE "31:cjc160_2754"
    INDEX 01 05:42:06
  TRACK 253 AUDIO
    TITLE "0:"
    INDEX 01 05:43:23
  TRACK 254 AUDIO
    TITLE "32:cjc160_2755"
    INDEX 01 05:43:66
  TRACK 255 AUDIO
    TITLE "0:"
    INDEX 01 05:45:26
  TRACK 256 AUDIO
    TITLE "33:cjc160_2756"
    INDEX 01 05:45:63
  TRACK 257 AUDIO
    TITLE "0:"
    INDEX 01 05:48:65
  TRACK 258 AUDIO
    TITLE "34:cjc160_2757"
    INDEX 01 05:49:30
  TRACK 259 AUDIO
    TITLE "0:"
    INDEX 01 05:53:08
  TRACK 260 AUDIO
    TITLE "35:cjc160_2758"
    INDEX 01 05:53:31
  TRACK 261 AUDIO
    TITLE "0:"
    INDEX 01 05:57:11
  TRACK 262 AUDIO
    TITLE "31:cjc160_2759"
    INDEX 01 05:58:19
  TRACK 263 AUDIO
    TITLE "0:"
    INDEX 01 05:59:57
  TRACK 264 AUDIO
    TITLE "32:cjc160_2760"
    INDEX 01 06:00:20
  TRACK 265 AUDIO
    TITLE "0:"
    INDEX 01 06:03:32
  TRACK 266 AUDIO
    TITLE "33:cjc160_2761"
    INDEX 01 06:03:71
  TRACK 267 AUDIO
    TITLE "0:"
    INDEX 01 06:07:12
  TRACK 268 AUDIO
    TITLE "34:cjc160_2762"
    INDEX 01 06:07:51
  TRACK 269 AUDIO
    TITLE "0:"
    INDEX 01 06:10:24
  TRACK 270 AUDIO
    TITLE "35:cjc160_2763"
    INDEX 01 06:10:51
  TRACK 271 AUDIO
    TITLE "0:"
    INDEX 01 06:13:24
  TRACK 272 AUDIO
    TITLE "31:cjc160_2764"
    INDEX 01 06:14:28
  TRACK 273 AUDIO
    TITLE "0:"
    INDEX 01 06:15:43
  TRACK 274 AUDIO
    TITLE "32:cjc160_2765"
    INDEX 01 06:16:09
  TRACK 275 AUDIO
    TITLE "0:"
    INDEX 01 06:17:38
  TRACK 276 AUDIO
    TITLE "33:cjc160_2766"
    INDEX 01 06:18:06
  TRACK 277 AUDIO
    TITLE "0:"
    INDEX 01 06:20:69
  TRACK 278 AUDIO
    TITLE "34:cjc160_2767"
    INDEX 01 06:21:47
  TRACK 279 AUDIO
    TITLE "0:"
    INDEX 01 06:24:22
  TRACK 280 AUDIO
    TITLE "35:cjc160_2768"
    INDEX 01 06:24:55
  TRACK 281 AUDIO
    TITLE "0:"
    INDEX 01 06:27:30
  TRACK 282 AUDIO
    TITLE "31:cjc160_2769"
    INDEX 01 06:28:34
  TRACK 283 AUDIO
    TITLE "0:"
    INDEX 01 06:29:33
  TRACK 284 AUDIO
    TITLE "32:cjc160_2770"
    INDEX 01 06:30:09
  TRACK 285 AUDIO
    TITLE "0:"
    INDEX 01 06:32:35
  TRACK 286 AUDIO
    TITLE "33:cjc160_2771"
    INDEX 01 06:32:72
  TRACK 287 AUDIO
    TITLE "0:"
    INDEX 01 06:35:14
  TRACK 288 AUDIO
    TITLE "34:cjc160_2772"
    INDEX 01 06:35:49
  TRACK 289 AUDIO
    TITLE "0:"
    INDEX 01 06:38:06
  TRACK 290 AUDIO
    TITLE "35:cjc160_2773"
    INDEX 01 06:38:34
  TRACK 291 AUDIO
    TITLE "0:"
    INDEX 01 06:40:64
  TRACK 292 AUDIO
    TITLE "31:cjc160_2774"
    INDEX 01 06:41:66
  TRACK 293 AUDIO
    TITLE "0:"
    INDEX 01 06:43:23
  TRACK 294 AUDIO
    TITLE "32:cjc160_2775"
    INDEX 01 06:43:63
  TRACK 295 AUDIO
    TITLE "0:"
    INDEX 01 06:47:31
  TRACK 296 AUDIO
    TITLE "33:cjc160_2776"
    INDEX 01 06:47:72
  TRACK 297 AUDIO
    TITLE "0:"
    INDEX 01 06:49:65
  TRACK 298 AUDIO
    TITLE "34:cjc160_2777"
    INDEX 01 06:50:29
  TRACK 299 AUDIO
    TITLE "0:"
    INDEX 01 06:51:70
  TRACK 300 AUDIO
    TITLE "35:cjc160_2778"
    INDEX 01 06:52:20
  TRACK 301 AUDIO
    TITLE "0:"
    INDEX 01 06:53:61
  TRACK 302 AUDIO
    TITLE "31:cjc160_2779"
    INDEX 01 06:54:60
  TRACK 303 AUDIO
    TITLE "0:"
    INDEX 01 06:56:06
  TRACK 304 AUDIO
    TITLE "32:cjc160_2780"
    INDEX 01 06:56:42
  TRACK 305 AUDIO
    TITLE "0:"
    INDEX 01 06:57:65
  TRACK 306 AUDIO
    TITLE "33:cjc160_2781"
    INDEX 01 06:58:39
  TRACK 307 AUDIO
    TITLE "0:"
    INDEX 01 07:00:30
  TRACK 308 AUDIO
    TITLE "34:cjc160_2782"
    INDEX 01 07:00:69
  TRACK 309 AUDIO
    TITLE "0:"
    INDEX 01 07:02:32
  TRACK 310 AUDIO
    TITLE "35:cjc160_2783"
    INDEX 01 07:02:58
  TRACK 311 AUDIO
    TITLE "0:"
    INDEX 01 07:04:24
  TRACK 312 AUDIO
    TITLE "31:cjc160_2784"
    INDEX 01 07:05:23
  TRACK 313 AUDIO
    TITLE "0:"
    INDEX 01 07:06:66
  TRACK 314 AUDIO
    TITLE "32:cjc160_2785"
    INDEX 01 07:07:28
  TRACK 315 AUDIO
    TITLE "0:"
    INDEX 01 07:08:47
  TRACK 316 AUDIO
    TITLE "33:cjc160_2786"
    INDEX 01 07:09:15
  TRACK 317 AUDIO
    TITLE "0:"
    INDEX 01 07:11:59
  TRACK 318 AUDIO
    TITLE "34:cjc160_2787"
    INDEX 01 07:12:23
  TRACK 319 AUDIO
    TITLE "0:"
    INDEX 01 07:15:06
  TRACK 320 AUDIO
    TITLE "35:cjc160_2788"
    INDEX 01 07:15:29
  TRACK 321 AUDIO
    TITLE "0:"
    INDEX 01 07:18:14
  TRACK 322 AUDIO
    TITLE "31:cjc160_2789"
    INDEX 01 07:19:11
  TRACK 323 AUDIO
    TITLE "0:"
    INDEX 01 07:21:26
  TRACK 324 AUDIO
    TITLE "32:cjc160_2790"
    INDEX 01 07:21:69
  TRACK 325 AUDIO
    TITLE "0:"
    INDEX 01 07:24:01
  TRACK 326 AUDIO
    TITLE "33:cjc160_2791"
    INDEX 01 07:24:38
  TRACK 327 AUDIO
    TITLE "0:"
    INDEX 01 07:27:01
  TRACK 328 AUDIO
    TITLE "34:cjc160_2792"
    INDEX 01 07:27:38
  TRACK 329 AUDIO
    TITLE "0:"
    INDEX 01 07:29:74
  TRACK 330 AUDIO
    TITLE "35:cjc160_2793"
    INDEX 01 07:30:25
  TRACK 331 AUDIO
    TITLE "0:"
    INDEX 01 07:32:61
  TRACK 332 AUDIO
    TITLE "31:cjc160_2794"
    INDEX 01 07:33:62
  TRACK 333 AUDIO
    TITLE "0:"
    INDEX 01 07:35:34
  TRACK 334 AUDIO
    TITLE "32:cjc160_2795"
    INDEX 01 07:36:00
  TRACK 335 AUDIO
    TITLE "0:"
    INDEX 01 07:39:02
  TRACK 336 AUDIO
    TITLE "33:cjc160_2796"
    INDEX 01 07:39:36
  TRACK 337 AUDIO
    TITLE "0:"
    INDEX 01 07:42:38
  TRACK 338 AUDIO
    TITLE "34:cjc160_2797"
    INDEX 01 07:43:02
  TRACK 339 AUDIO
    TITLE "0:"
    INDEX 01 07:46:08
  TRACK 340 AUDIO
    TITLE "35:cjc160_2798"
    INDEX 01 07:46:32
  TRACK 341 AUDIO
    TITLE "0:"
    INDEX 01 07:49:38
  TRACK 342 AUDIO
    TITLE "31:cjc160_2799"
    INDEX 01 07:50:37
  TRACK 343 AUDIO
    TITLE "0:"
    INDEX 01 07:51:60
  TRACK 344 AUDIO
    TITLE "32:cjc160_2800"
    INDEX 01 07:52:24
  TRACK 345 AUDIO
    TITLE "0:"
    INDEX 01 07:55:07
  TRACK 346 AUDIO
    TITLE "33:cjc160_2801"
    INDEX 01 07:55:44
  TRACK 347 AUDIO
    TITLE "0:"
    INDEX 01 07:58:51
  TRACK 348 AUDIO
    TITLE "34:cjc160_2802"
    INDEX 01 07:59:13
  TRACK 349 AUDIO
    TITLE "0:"
    INDEX 01 08:01:74
  TRACK 350 AUDIO
    TITLE "35:cjc160_2803"
    INDEX 01 08:02:25
  TRACK 351 AUDIO
    TITLE "0:"
    INDEX 01 08:05:11
  TRACK 352 AUDIO
    TITLE "31:cjc160_2804"
    INDEX 01 08:06:13
  TRACK 353 AUDIO
    TITLE "0:"
    INDEX 01 08:09:17
  TRACK 354 AUDIO
    TITLE "32:cjc160_2805"
    INDEX 01 08:09:54
  TRACK 355 AUDIO
    TITLE "0:"
    INDEX 01 08:10:73
  TRACK 356 AUDIO
    TITLE "33:cjc160_2806"
    INDEX 01 08:11:43
  TRACK 357 AUDIO
    TITLE "0:"
    INDEX 01 08:13:48
  TRACK 358 AUDIO
    TITLE "34:cjc160_2807"
    INDEX 01 08:14:12
  TRACK 359 AUDIO
    TITLE "0:"
    INDEX 01 08:16:23
  TRACK 360 AUDIO
    TITLE "35:cjc160_2808"
    INDEX 01 08:16:48
  TRACK 361 AUDIO
    TITLE "0:"
    INDEX 01 08:18:57
  TRACK 362 AUDIO
    TITLE "31:cjc160_2809"
    INDEX 01 08:19:57
  TRACK 363 AUDIO
    TITLE "0:"
    INDEX 01 08:21:18
  TRACK 364 AUDIO
    TITLE "32:cjc160_2810"
    INDEX 01 08:21:57
  TRACK 365 AUDIO
    TITLE "0:"
    INDEX 01 08:23:21
  TRACK 366 AUDIO
    TITLE "33:cjc160_2811"
    INDEX 01 08:23:62
  TRACK 367 AUDIO
    TITLE "0:"
    INDEX 01 08:27:35
  TRACK 368 AUDIO
    TITLE "34:cjc160_2812"
    INDEX 01 08:27:72
  TRACK 369 AUDIO
    TITLE "0:"
    INDEX 01 08:30:51
  TRACK 370 AUDIO
    TITLE "35:cjc160_2813"
    INDEX 01 08:31:03
  TRACK 371 AUDIO
    TITLE "0:"
    INDEX 01 08:33:57
  TRACK 372 AUDIO
    TITLE "31:cjc160_2814"
    INDEX 01 08:34:58
  TRACK 373 AUDIO
    TITLE "0:"
    INDEX 01 08:35:69
  TRACK 374 AUDIO
    TITLE "32:cjc160_2815"
    INDEX 01 08:36:37
  TRACK 375 AUDIO
    TITLE "0:"
    INDEX 01 08:38:60
  TRACK 376 AUDIO
    TITLE "33:cjc160_2816"
    INDEX 01 08:39:24
  TRACK 377 AUDIO
    TITLE "0:"
    INDEX 01 08:41:35
  TRACK 378 AUDIO
    TITLE "34:cjc160_2817"
    INDEX 01 08:41:72
  TRACK 379 AUDIO
    TITLE "0:"
    INDEX 01 08:43:45
  TRACK 380 AUDIO
    TITLE "35:cjc160_2818"
    INDEX 01 08:43:73
  TRACK 381 AUDIO
    TITLE "0:"
    INDEX 01 08:45:46
  TRACK 382 AUDIO
    TITLE "31:cjc160_2819"
    INDEX 01 08:46:48
  TRACK 383 AUDIO
    TITLE "0:"
    INDEX 01 08:48:19
  TRACK 384 AUDIO
    TITLE "32:cjc160_2820"
    INDEX 01 08:48:58
  TRACK 385 AUDIO
    TITLE "0:"
    INDEX 01 08:50:57
  TRACK 386 AUDIO
    TITLE "33:cjc160_2821"
    INDEX 01 08:51:27
  TRACK 387 AUDIO
    TITLE "0:"
    INDEX 01 08:54:08
  TRACK 388 AUDIO
    TITLE "34:cjc160_2822"
    INDEX 01 08:54:47
  TRACK 389 AUDIO
    TITLE "0:"
    INDEX 01 08:57:06
  TRACK 390 AUDIO
    TITLE "35:cjc160_2823"
    INDEX 01 08:57:32
  TRACK 391 AUDIO
    TITLE "0:"
    INDEX 01 08:59:66
  TRACK 392 AUDIO
    TITLE "31:cjc160_2824"
    INDEX 01 09:00:67
  TRACK 393 AUDIO
    TITLE "0:"
    INDEX 01 09:02:07
  TRACK 394 AUDIO
    TITLE "32:cjc160_2825"
    INDEX 01 09:02:45
  TRACK 395 AUDIO
    TITLE "0:"
    INDEX 01 09:05:14
  TRACK 396 AUDIO
    TITLE "33:cjc160_2826"
    INDEX 01 09:05:49
  TRACK 397 AUDIO
    TITLE "0:"
    INDEX 01 09:07:28
  TRACK 398 AUDIO
    TITLE "34:cjc160_2827"
    INDEX 01 09:07:67
  TRACK 399 AUDIO
    TITLE "0:"
    INDEX 01 09:09:49
  TRACK 400 AUDIO
    TITLE "35:cjc160_2828"
    INDEX 01 09:09:72
  TRACK 401 AUDIO
    TITLE "0:"
    INDEX 01 09:11:53
  TRACK 402 AUDIO
    TITLE "31:cjc160_2829"
    INDEX 01 09:12:55
  TRACK 403 AUDIO
    TITLE "0:"
    INDEX 01 09:14:20
  TRACK 404 AUDIO
    TITLE "32:cjc160_2830"
    INDEX 01 09:14:60
  TRACK 405 AUDIO
    TITLE "0:"
    INDEX 01 09:16:31
  TRACK 406 AUDIO
    TITLE "33:cjc160_2831"
    INDEX 01 09:16:72
  TRACK 407 AUDIO
    TITLE "0:"
    INDEX 01 09:20:13
  TRACK 408 AUDIO
    TITLE "34:cjc160_2832"
    INDEX 01 09:20:54
  TRACK 409 AUDIO
    TITLE "0:"
    INDEX 01 09:23:41
  TRACK 410 AUDIO
    TITLE "35:cjc160_2833"
    INDEX 01 09:23:66
  TRACK 411 AUDIO
    TITLE "0:"
    INDEX 01 09:26:53
  TRACK 412 AUDIO
    TITLE "31:cjc160_2834"
    INDEX 01 09:27:56
  TRACK 413 AUDIO
    TITLE "0:"
    INDEX 01 09:29:04
  TRACK 414 AUDIO
    TITLE "32:cjc160_2835"
    INDEX 01 09:29:44
  TRACK 415 AUDIO
    TITLE "0:"
    INDEX 01 09:32:12
  TRACK 416 AUDIO
    TITLE "33:cjc160_2836"
    INDEX 01 09:32:50
  TRACK 417 AUDIO
    TITLE "0:"
    INDEX 01 09:35:11
  TRACK 418 AUDIO
    TITLE "34:cjc160_2837"
    INDEX 01 09:35:50
  TRACK 419 AUDIO
    TITLE "0:"
    INDEX 01 09:38:05
  TRACK 420 AUDIO
    TITLE "35:cjc160_2838"
    INDEX 01 09:38:29
  TRACK 421 AUDIO
    TITLE "0:"
    INDEX 01 09:40:61
  TRACK 422 AUDIO
    TITLE "31:cjc160_2839"
    INDEX 01 09:41:62
  TRACK 423 AUDIO
    TITLE "0:"
    INDEX 01 09:43:10
  TRACK 424 AUDIO
    TITLE "32:cjc160_2840"
    INDEX 01 09:43:48
  TRACK 425 AUDIO
    TITLE "0:"
    INDEX 01 09:45:05
  TRACK 426 AUDIO
    TITLE "33:cjc160_2841"
    INDEX 01 09:45:43
  TRACK 427 AUDIO
    TITLE "0:"
    INDEX 01 09:47:69
  TRACK 428 AUDIO
    TITLE "34:cjc160_2842"
    INDEX 01 09:48:33
  TRACK 429 AUDIO
    TITLE "0:"
    INDEX 01 09:50:59
  TRACK 430 AUDIO
    TITLE "35:cjc160_2843"
    INDEX 01 09:51:12
  TRACK 431 AUDIO
    TITLE "0:"
    INDEX 01 09:53:38
  TRACK 432 AUDIO
    TITLE "31:cjc160_2844"
    INDEX 01 09:54:38
  TRACK 433 AUDIO
    TITLE "0:"
    INDEX 01 09:55:64
  TRACK 434 AUDIO
    TITLE "32:cjc160_2845"
    INDEX 01 09:56:31
  TRACK 435 AUDIO
    TITLE "0:"
    INDEX 01 09:58:61
  TRACK 436 AUDIO
    TITLE "33:cjc160_2846"
    INDEX 01 09:59:25
  TRACK 437 AUDIO
    TITLE "0:"
    INDEX 01 10:01:67
  TRACK 438 AUDIO
    TITLE "34:cjc160_2847"
    INDEX 01 10:02:31
  TRACK 439 AUDIO
    TITLE "0:"
    INDEX 01 10:04:63
  TRACK 440 AUDIO
    TITLE "35:cjc160_2848"
    INDEX 01 10:05:16
  TRACK 441 AUDIO
    TITLE "0:"
    INDEX 01 10:07:50
  TRACK 442 AUDIO
    TITLE "31:cjc160_2849"
    INDEX 01 10:08:49
  TRACK 443 AUDIO
    TITLE "0:"
    INDEX 01 10:10:19
  TRACK 444 AUDIO
    TITLE "32:cjc160_2850"
    INDEX 01 10:10:58
  TRACK 445 AUDIO
    TITLE "0:"
    INDEX 01 10:13:33
  TRACK 446 AUDIO
    TITLE "33:cjc160_2851"
    INDEX 01 10:13:72
  TRACK 447 AUDIO
    TITLE "0:"
    INDEX 01 10:17:70
  TRACK 448 AUDIO
    TITLE "34:cjc160_2852"
    INDEX 01 10:18:34
  TRACK 449 AUDIO
    TITLE "0:"
    INDEX 01 10:21:70
  TRACK 450 AUDIO
    TITLE "35:cjc160_2853"
    INDEX 01 10:22:20
  TRACK 451 AUDIO
    TITLE "0:"
    INDEX 01 10:25:54
  TRACK 452 AUDIO
    TITLE "31:cjc160_2854"
    INDEX 01 10:26:57
  TRACK 453 AUDIO
    TITLE "0:"
    INDEX 01 10:28:27
  TRACK 454 AUDIO
    TITLE "32:cjc160_2855"
    INDEX 01 10:28:66
  TRACK 455 AUDIO
    TITLE "0:"
    INDEX 01 10:30:41
  TRACK 456 AUDIO
    TITLE "33:cjc160_2856"
    INDEX 01 10:31:09
  TRACK 457 AUDIO
    TITLE "0:"
    INDEX 01 10:34:41
  TRACK 458 AUDIO
    TITLE "34:cjc160_2857"
    INDEX 01 10:35:05
  TRACK 459 AUDIO
    TITLE "0:"
    INDEX 01 10:38:07
  TRACK 460 AUDIO
    TITLE "35:cjc160_2858"
    INDEX 01 10:38:33
  TRACK 461 AUDIO
    TITLE "0:"
    INDEX 01 10:41:35
  TRACK 462 AUDIO
    TITLE "31:cjc160_2859"
    INDEX 01 10:42:35
  TRACK 463 AUDIO
    TITLE "0:"
    INDEX 01 10:43:52
  TRACK 464 AUDIO
    TITLE "32:cjc160_2860"
    INDEX 01 10:44:16
  TRACK 465 AUDIO
    TITLE "0:"
    INDEX 01 10:45:17
  TRACK 466 AUDIO
    TITLE "33:cjc160_2861"
    INDEX 01 10:45:55
  TRACK 467 AUDIO
    TITLE "0:"
    INDEX 01 10:47:53
  TRACK 468 AUDIO
    TITLE "34:cjc160_2862"
    INDEX 01 10:48:18
  TRACK 469 AUDIO
    TITLE "0:"
    INDEX 01 10:50:28
  TRACK 470 AUDIO
    TITLE "35:cjc160_2863"
    INDEX 01 10:50:56
  TRACK 471 AUDIO
    TITLE "0:"
    INDEX 01 10:52:64
  TRACK 472 AUDIO
    TITLE "31:cjc160_2864"
    INDEX 01 10:53:68
  TRACK 473 AUDIO
    TITLE "0:"
    INDEX 01 10:55:18
  TRACK 474 AUDIO
    TITLE "32:cjc160_2865"
    INDEX 01 10:55:57
  TRACK 475 AUDIO
    TITLE "0:"
    INDEX 01 10:56:64
  TRACK 476 AUDIO
    TITLE "33:cjc160_2866"
    INDEX 01 10:57:26
  TRACK 477 AUDIO
    TITLE "0:"
    INDEX 01 10:59:57
  TRACK 478 AUDIO
    TITLE "34:cjc160_2867"
    INDEX 01 11:00:25
  TRACK 479 AUDIO
    TITLE "0:"
    INDEX 01 11:02:35
  TRACK 480 AUDIO
    TITLE "35:cjc160_2868"
    INDEX 01 11:02:61
  TRACK 481 AUDIO
    TITLE "0:"
    INDEX 01 11:04:72
  TRACK 482 AUDIO
    TITLE "31:cjc160_2869"
    INDEX 01 11:05:73
  TRACK 483 AUDIO
    TITLE "0:"
    INDEX 01 11:07:15
  TRACK 484 AUDIO
    TITLE "32:cjc160_2870"
    INDEX 01 11:07:54
  TRACK 485 AUDIO
    TITLE "0:"
    INDEX 01 11:08:48
  TRACK 486 AUDIO
    TITLE "33:cjc160_2871"
    INDEX 01 11:09:12
  TRACK 487 AUDIO
    TITLE "0:"
    INDEX 01 11:11:52
  TRACK 488 AUDIO
    TITLE "34:cjc160_2872"
    INDEX 01 11:12:16
  TRACK 489 AUDIO
    TITLE "0:"
    INDEX 01 11:14:29
  TRACK 490 AUDIO
    TITLE "35:cjc160_2873"
    INDEX 01 11:14:52
  TRACK 491 AUDIO
    TITLE "0:"
    INDEX 01 11:16:65
  TRACK 492 AUDIO
    TITLE "31:cjc160_2874"
    INDEX 01 11:17:68
  TRACK 493 AUDIO
    TITLE "0:"
    INDEX 01 11:19:12
  TRACK 494 AUDIO
    TITLE "32:cjc160_2875"
    INDEX 01 11:19:53
  TRACK 495 AUDIO
    TITLE "0:"
    INDEX 01 11:23:67
  TRACK 496 AUDIO
    TITLE "33:cjc160_2876"
    INDEX 01 11:24:29
  TRACK 497 AUDIO
    TITLE "0:"
    INDEX 01 11:26:55
  TRACK 498 AUDIO
    TITLE "34:cjc160_2877"
    INDEX 01 11:27:18
  TRACK 499 AUDIO
    TITLE "0:"
    INDEX 01 11:29:03
  TRACK 500 AUDIO
    TITLE "35:cjc160_2878"
    INDEX 01 11:29:28
  TRACK 501 AUDIO
    TITLE "0:"
    INDEX 01 11:31:16
  TRACK 502 AUDIO
    TITLE "31:cjc160_2879"
    INDEX 01 11:32:13
  TRACK 503 AUDIO
    TITLE "0:"
    INDEX 01 11:33:32
  TRACK 504 AUDIO
    TITLE "32:cjc160_2880"
    INDEX 01 11:33:69
  TRACK 505 AUDIO
    TITLE "0:"
    INDEX 01 11:36:09
  TRACK 506 AUDIO
    TITLE "33:cjc160_2881"
    INDEX 01 11:36:50
  TRACK 507 AUDIO
    TITLE "0:"
    INDEX 01 11:39:05
  TRACK 508 AUDIO
    TITLE "34:cjc160_2882"
    INDEX 01 11:39:48
  TRACK 509 AUDIO
    TITLE "0:"
    INDEX 01 11:41:59
  TRACK 510 AUDIO
    TITLE "35:cjc160_2883"
    INDEX 01 11:42:07
  TRACK 511 AUDIO
    TITLE "0:"
    INDEX 01 11:44:20
  TRACK 512 AUDIO
    TITLE "31:cjc160_2884"
    INDEX 01 11:45:21
  TRACK 513 AUDIO
    TITLE "0:"
    INDEX 01 11:46:17
  TRACK 514 AUDIO
    TITLE "32:cjc160_2885"
    INDEX 01 11:46:62
  TRACK 515 AUDIO
    TITLE "0:"
    INDEX 01 11:47:64
  TRACK 516 AUDIO
    TITLE "33:cjc160_2886"
    INDEX 01 11:48:26
  TRACK 517 AUDIO
    TITLE "0:"
    INDEX 01 11:51:40
  TRACK 518 AUDIO
    TITLE "34:cjc160_2887"
    INDEX 01 11:52:02
  TRACK 519 AUDIO
    TITLE "0:"
    INDEX 01 11:55:08
  TRACK 520 AUDIO
    TITLE "35:cjc160_2888"
    INDEX 01 11:55:36
  TRACK 521 AUDIO
    TITLE "0:"
    INDEX 01 11:58:42
  TRACK 522 AUDIO
    TITLE "31:cjc160_2889"
    INDEX 01 11:59:43
  TRACK 523 AUDIO
    TITLE "0:"
    INDEX 01 12:00:52
  TRACK 524 AUDIO
    TITLE "32:cjc160_2890"
    INDEX 01 12:01:17
  TRACK 525 AUDIO
    TITLE "0:"
    INDEX 01 12:02:22
  TRACK 526 AUDIO
    TITLE "33:cjc160_2891"
    INDEX 01 12:02:61
  TRACK 527 AUDIO
    TITLE "0:"
    INDEX 01 12:04:72
  TRACK 528 AUDIO
    TITLE "34:cjc160_2892"
    INDEX 01 12:05:32
  TRACK 529 AUDIO
    TITLE "0:"
    INDEX 01 12:07:41
  TRACK 530 AUDIO
    TITLE "35:cjc160_2893"
    INDEX 01 12:07:66
  TRACK 531 AUDIO
    TITLE "0:"
    INDEX 01 12:10:00
  TRACK 532 AUDIO
    TITLE "31:cjc160_2894"
    INDEX 01 12:11:05
  TRACK 533 AUDIO
    TITLE "0:"
    INDEX 01 12:12:30
  TRACK 534 AUDIO
    TITLE "32:cjc160_2895"
    INDEX 01 12:12:67
  TRACK 535 AUDIO
    TITLE "0:"
    INDEX 01 12:13:61
  TRACK 536 AUDIO
    TITLE "33:cjc160_2896"
    INDEX 01 12:14:25
  TRACK 537 AUDIO
    TITLE "0:"
    INDEX 01 12:17:29
  TRACK 538 AUDIO
    TITLE "34:cjc160_2897"
    INDEX 01 12:17:65
  TRACK 539 AUDIO
    TITLE "0:"
    INDEX 01 12:20:65
  TRACK 540 AUDIO
    TITLE "35:cjc160_2898"
    INDEX 01 12:21:11
  TRACK 541 AUDIO
    TITLE "0:"
    INDEX 01 12:24:12
  TRACK 542 AUDIO
    TITLE "31:cjc160_2899"
    INDEX 01 12:25:13
  TRACK 543 AUDIO
    TITLE "0:"
    INDEX 01 12:26:22
  TRACK 544 AUDIO
    TITLE "32:cjc160_2900"
    INDEX 01 12:26:64
  TRACK 545 AUDIO
    TITLE "0:"
    INDEX 01 12:28:12
  TRACK 546 AUDIO
    TITLE "33:cjc160_2901"
    INDEX 01 12:28:59
  TRACK 547 AUDIO
    TITLE "0:"
    INDEX 01 12:31:45
  TRACK 548 AUDIO
    TITLE "34:cjc160_2902"
    INDEX 01 12:32:07
  TRACK 549 AUDIO
    TITLE "0:"
    INDEX 01 12:34:47
  TRACK 550 AUDIO
    TITLE "35:cjc160_2903"
    INDEX 01 12:34:73
  TRACK 551 AUDIO
    TITLE "0:"
    INDEX 01 12:37:38
  TRACK 552 AUDIO
    TITLE "31:cjc160_2904"
    INDEX 01 12:38:37
  TRACK 553 AUDIO
    TITLE "0:"
    INDEX 01 12:39:58
  TRACK 554 AUDIO
    TITLE "32:cjc160_2905"
    INDEX 01 12:40:25
  TRACK 555 AUDIO
    TITLE "0:"
    INDEX 01 12:41:55
  TRACK 556 AUDIO
    TITLE "33:cjc160_2906"
    INDEX 01 12:42:16
  TRACK 557 AUDIO
    TITLE "0:"
    INDEX 01 12:44:54
  TRACK 558 AUDIO
    TITLE "34:cjc160_2907"
    INDEX 01 12:45:18
  TRACK 559 AUDIO
    TITLE "0:"
    INDEX 01 12:47:32
  TRACK 560 AUDIO
    TITLE "35:cjc160_2908"
    INDEX 01 12:47:58
  TRACK 561 AUDIO
    TITLE "0:"
    INDEX 01 12:49:72
  TRACK 562 AUDIO
    TITLE "31:cjc160_2909"
    INDEX 01 12:50:72
  TRACK 563 AUDIO
    TITLE "0:"
    INDEX 01 12:52:24
  TRACK 564 AUDIO
    TITLE "32:cjc160_2910"
    INDEX 01 12:52:63
  TRACK 565 AUDIO
    TITLE "0:"
    INDEX 01 12:55:57
  TRACK 566 AUDIO
    TITLE "33:cjc160_2911"
    INDEX 01 12:56:22
  TRACK 567 AUDIO
    TITLE "0:"
    INDEX 01 12:58:20
  TRACK 568 AUDIO
    TITLE "34:cjc160_2912"
    INDEX 01 12:58:62
  TRACK 569 AUDIO
    TITLE "0:"
    INDEX 01 13:01:11
  TRACK 570 AUDIO
    TITLE "35:cjc160_2913"
    INDEX 01 13:01:36
  TRACK 571 AUDIO
    TITLE "0:"
    INDEX 01 13:03:61
  TRACK 572 AUDIO
    TITLE "31:cjc160_2914"
    INDEX 01 13:04:62
  TRACK 573 AUDIO
    TITLE "0:"
    INDEX 01 13:06:00
  TRACK 574 AUDIO
    TITLE "32:cjc160_2915"
    INDEX 01 13:06:42
  TRACK 575 AUDIO
    TITLE "0:"
    INDEX 01 13:07:61
  TRACK 576 AUDIO
    TITLE "33:cjc160_2916"
    INDEX 01 13:08:23
  TRACK 577 AUDIO
    TITLE "0:"
    INDEX 01 13:09:59
  TRACK 578 AUDIO
    TITLE "34:cjc160_2917"
    INDEX 01 13:10:26
  TRACK 579 AUDIO
    TITLE "0:"
    INDEX 01 13:11:62
  TRACK 580 AUDIO
    TITLE "35:cjc160_2918"
    INDEX 01 13:12:17
  TRACK 581 AUDIO
    TITLE "0:"
    INDEX 01 13:13:44
  TRACK 582 AUDIO
    TITLE "31:cjc160_2919"
    INDEX 01 13:14:55
  TRACK 583 AUDIO
    TITLE "0:"
    INDEX 01 13:16:01
  TRACK 584 AUDIO
    TITLE "32:cjc160_2920"
    INDEX 01 13:16:42
  TRACK 585 AUDIO
    TITLE "0:"
    INDEX 01 13:17:69
  TRACK 586 AUDIO
    TITLE "33:cjc160_2921"
    INDEX 01 13:18:33
  TRACK 587 AUDIO
    TITLE "0:"
    INDEX 01 13:20:32
  TRACK 588 AUDIO
    TITLE "34:cjc160_2922"
    INDEX 01 13:20:71
  TRACK 589 AUDIO
    TITLE "0:"
    INDEX 01 13:22:70
  TRACK 590 AUDIO
    TITLE "35:cjc160_2923"
    INDEX 01 13:23:22
  TRACK 591 AUDIO
    TITLE "0:"
    INDEX 01 13:25:19
  TRACK 592 AUDIO
    TITLE "31:cjc160_2924"
    INDEX 01 13:26:21
  TRACK 593 AUDIO
    TITLE "0:"
    INDEX 01 13:27:59
  TRACK 594 AUDIO
    TITLE "32:cjc160_2925"
    INDEX 01 13:28:27
  TRACK 595 AUDIO
    TITLE "0:"
    INDEX 01 13:32:13
  TRACK 596 AUDIO
    TITLE "33:cjc160_2926"
    INDEX 01 13:32:53
  TRACK 597 AUDIO
    TITLE "0:"
    INDEX 01 13:34:48
  TRACK 598 AUDIO
    TITLE "34:cjc160_2927"
    INDEX 01 13:35:10
  TRACK 599 AUDIO
    TITLE "0:"
    INDEX 01 13:38:22
  TRACK 600 AUDIO
    TITLE "35:cjc160_2928"
    INDEX 01 13:38:47
  TRACK 601 AUDIO
    TITLE "0:"
    INDEX 01 13:41:59
  TRACK 602 AUDIO
    TITLE "31:cjc160_2929"
    INDEX 01 13:42:61
  TRACK 603 AUDIO
    TITLE "0:"
    INDEX 01 13:44:28
  TRACK 604 AUDIO
    TITLE "32:cjc160_2930"
    INDEX 01 13:44:68
  TRACK 605 AUDIO
    TITLE "0:"
    INDEX 01 13:48:28
  TRACK 606 AUDIO
    TITLE "33:cjc160_2931"
    INDEX 01 13:48:65
  TRACK 607 AUDIO
    TITLE "0:"
    INDEX 01 13:51:40
  TRACK 608 AUDIO
    TITLE "34:cjc160_2932"
    INDEX 01 13:52:04
  TRACK 609 AUDIO
    TITLE "0:"
    INDEX 01 13:54:60
  TRACK 610 AUDIO
    TITLE "35:cjc160_2933"
    INDEX 01 13:55:11
  TRACK 611 AUDIO
    TITLE "0:"
    INDEX 01 13:57:66
  TRACK 612 AUDIO
    TITLE "31:cjc160_2934"
    INDEX 01 13:58:66
  TRACK 613 AUDIO
    TITLE "0:"
    INDEX 01 14:00:22
  TRACK 614 AUDIO
    TITLE "32:cjc160_2935"
    INDEX 01 14:00:61
  TRACK 615 AUDIO
    TITLE "0:"
    INDEX 01 14:02:05
  TRACK 616 AUDIO
    TITLE "33:cjc160_2936"
    INDEX 01 14:02:42
  TRACK 617 AUDIO
    TITLE "0:"
    INDEX 01 14:05:19
  TRACK 618 AUDIO
    TITLE "34:cjc160_2937"
    INDEX 01 14:05:60
  TRACK 619 AUDIO
    TITLE "0:"
    INDEX 01 14:07:73
  TRACK 620 AUDIO
    TITLE "35:cjc160_2938"
    INDEX 01 14:08:25
  TRACK 621 AUDIO
    TITLE "0:"
    INDEX 01 14:10:38
  TRACK 622 AUDIO
    TITLE "31:cjc160_2939"
    INDEX 01 14:11:37
  TRACK 623 AUDIO
    TITLE "0:"
    INDEX 01 14:12:66
  TRACK 624 AUDIO
    TITLE "32:cjc160_2940"
    INDEX 01 14:13:28
  TRACK 625 AUDIO
    TITLE "0:"
    INDEX 01 14:15:68
  TRACK 626 AUDIO
    TITLE "33:cjc160_2941"
    INDEX 01 14:16:30
  TRACK 627 AUDIO
    TITLE "0:"
    INDEX 01 14:18:29
  TRACK 628 AUDIO
    TITLE "34:cjc160_2942"
    INDEX 01 14:18:68
  TRACK 629 AUDIO
    TITLE "0:"
    INDEX 01 14:20:67
  TRACK 630 AUDIO
    TITLE "35:cjc160_2943"
    INDEX 01 14:21:18
  TRACK 631 AUDIO
    TITLE "0:"
    INDEX 01 14:23:19
  TRACK 632 AUDIO
    TITLE "31:cjc160_2944"
    INDEX 01 14:24:18
  TRACK 633 AUDIO
    TITLE "0:"
    INDEX 01 14:25:31
  TRACK 634 AUDIO
    TITLE "32:cjc160_2945"
    INDEX 01 14:25:70
  TRACK 635 AUDIO
    TITLE "0:"
    INDEX 01 14:26:64
  TRACK 636 AUDIO
    TITLE "33:cjc160_2946"
    INDEX 01 14:27:28
  TRACK 637 AUDIO
    TITLE "0:"
    INDEX 01 14:29:37
  TRACK 638 AUDIO
    TITLE "34:cjc160_2947"
    INDEX 01 14:29:74
  TRACK 639 AUDIO
    TITLE "0:"
    INDEX 01 14:32:27
  TRACK 640 AUDIO
    TITLE "35:cjc160_2948"
    INDEX 01 14:32:55
  TRACK 641 AUDIO
    TITLE "0:"
    INDEX 01 14:35:06
  TRACK 642 AUDIO
    TITLE "31:cjc160_2949"
    INDEX 01 14:36:04
  TRACK 643 AUDIO
    TITLE "0:"
    INDEX 01 14:37:15
  TRACK 644 AUDIO
    TITLE "32:cjc160_2950"
    INDEX 01 14:37:50
  TRACK 645 AUDIO
    TITLE "0:"
    INDEX 01 14:39:59
  TRACK 646 AUDIO
    TITLE "33:cjc160_2951"
    INDEX 01 14:40:23
  TRACK 647 AUDIO
    TITLE "0:"
    INDEX 01 14:42:10
  TRACK 648 AUDIO
    TITLE "34:cjc160_2952"
    INDEX 01 14:42:49
  TRACK 649 AUDIO
    TITLE "0:"
    INDEX 01 14:44:58
  TRACK 650 AUDIO
    TITLE "35:cjc160_2953"
    INDEX 01 14:45:14
  TRACK 651 AUDIO
    TITLE "0:"
    INDEX 01 14:47:23
  TRACK 652 AUDIO
    TITLE "31:cjc160_2954"
    INDEX 01 14:48:32
  TRACK 653 AUDIO
    TITLE "0:"
    INDEX 01 14:49:34
  TRACK 654 AUDIO
    TITLE "32:cjc160_2955"
    INDEX 01 14:49:73
  TRACK 655 AUDIO
    TITLE "0:"
    INDEX 01 14:51:13
  TRACK 656 AUDIO
    TITLE "33:cjc160_2956"
    INDEX 01 14:51:50
  TRACK 657 AUDIO
    TITLE "0:"
    INDEX 01 14:53:41
  TRACK 658 AUDIO
    TITLE "34:cjc160_2957"
    INDEX 01 14:54:07
  TRACK 659 AUDIO
    TITLE "0:"
    INDEX 01 14:55:70
  TRACK 660 AUDIO
    TITLE "35:cjc160_2958"
    INDEX 01 14:56:26
  TRACK 661 AUDIO
    TITLE "0:"
    INDEX 01 14:58:11
  TRACK 662 AUDIO
    TITLE "31:cjc160_2959"
    INDEX 01 14:59:13
  TRACK 663 AUDIO
    TITLE "0:"
    INDEX 01 15:00:43
  TRACK 664 AUDIO
    TITLE "32:cjc160_2960"
    INDEX 01 15:01:08
  TRACK 665 AUDIO
    TITLE "0:"
    INDEX 01 15:04:22
  TRACK 666 AUDIO
    TITLE "33:cjc160_2961"
    INDEX 01 15:04:65
  TRACK 667 AUDIO
    TITLE "0:"
    INDEX 01 15:07:49
  TRACK 668 AUDIO
    TITLE "34:cjc160_2962"
    INDEX 01 15:08:12
  TRACK 669 AUDIO
    TITLE "0:"
    INDEX 01 15:10:71
  TRACK 670 AUDIO
    TITLE "35:cjc160_2963"
    INDEX 01 15:11:20
  TRACK 671 AUDIO
    TITLE "0:"
    INDEX 01 15:14:04
  TRACK 672 AUDIO
    TITLE "31:cjc160_2964"
    INDEX 01 15:15:04
  TRACK 673 AUDIO
    TITLE "0:"
    INDEX 01 15:16:21
  TRACK 674 AUDIO
    TITLE "32:cjc160_2965"
    INDEX 01 15:16:68
  TRACK 675 AUDIO
    TITLE "0:"
    INDEX 01 15:18:16
  TRACK 676 AUDIO
    TITLE "33:cjc160_2966"
    INDEX 01 15:18:61
  TRACK 677 AUDIO
    TITLE "0:"
    INDEX 01 15:21:14
  TRACK 678 AUDIO
    TITLE "34:cjc160_2967"
    INDEX 01 15:21:49
  TRACK 679 AUDIO
    TITLE "0:"
    INDEX 01 15:24:12
  TRACK 680 AUDIO
    TITLE "35:cjc160_2968"
    INDEX 01 15:24:34
  TRACK 681 AUDIO
    TITLE "0:"
    INDEX 01 15:26:72
  TRACK 682 AUDIO
    TITLE "31:cjc160_2969"
    INDEX 01 15:28:01
  TRACK 683 AUDIO
    TITLE "0:"
    INDEX 01 15:29:47
  TRACK 684 AUDIO
    TITLE "32:cjc160_2970"
    INDEX 01 15:30:09
  TRACK 685 AUDIO
    TITLE "0:"
    INDEX 01 15:31:34
  TRACK 686 AUDIO
    TITLE "33:cjc160_2971"
    INDEX 01 15:31:73
  TRACK 687 AUDIO
    TITLE "0:"
    INDEX 01 15:34:32
  TRACK 688 AUDIO
    TITLE "34:cjc160_2972"
    INDEX 01 15:34:72
  TRACK 689 AUDIO
    TITLE "0:"
    INDEX 01 15:37:45
  TRACK 690 AUDIO
    TITLE "35:cjc160_2973"
    INDEX 01 15:37:70
  TRACK 691 AUDIO
    TITLE "0:"
    INDEX 01 15:40:43
  TRACK 692 AUDIO
    TITLE "31:cjc160_2974"
    INDEX 01 15:41:42
  TRACK 693 AUDIO
    TITLE "0:"
    INDEX 01 15:43:08
  TRACK 694 AUDIO
    TITLE "32:cjc160_2975"
    INDEX 01 15:43:45
  TRACK 695 AUDIO
    TITLE "0:"
    INDEX 01 15:45:52
  TRACK 696 AUDIO
    TITLE "33:cjc160_2976"
    INDEX 01 15:46:14
  TRACK 697 AUDIO
    TITLE "0:"
    INDEX 01 15:48:68
  TRACK 698 AUDIO
    TITLE "34:cjc160_2977"
    INDEX 01 15:49:32
  TRACK 699 AUDIO
    TITLE "0:"
    INDEX 01 15:51:62
  TRACK 700 AUDIO
    TITLE "35:cjc160_2978"
    INDEX 01 15:52:13
  TRACK 701 AUDIO
    TITLE "0:"
    INDEX 01 15:54:43
  TRACK 702 AUDIO
    TITLE "31:cjc160_2979"
    INDEX 01 15:55:42
  TRACK 703 AUDIO
    TITLE "0:"
    INDEX 01 15:57:06
  TRACK 704 AUDIO
    TITLE "32:cjc160_2980"
    INDEX 01 15:57:43
  TRACK 705 AUDIO
    TITLE "0:"
    INDEX 01 15:58:66
  TRACK 706 AUDIO
    TITLE "33:cjc160_2981"
    INDEX 01 15:59:30
  TRACK 707 AUDIO
    TITLE "0:"
    INDEX 01 16:02:21
  TRACK 708 AUDIO
    TITLE "34:cjc160_2982"
    INDEX 01 16:02:62
  TRACK 709 AUDIO
    TITLE "0:"
    INDEX 01 16:05:51
  TRACK 710 AUDIO
    TITLE "35:cjc160_2983"
    INDEX 01 16:06:01
  TRACK 711 AUDIO
    TITLE "0:"
    INDEX 01 16:08:63
  TRACK 712 AUDIO
    TITLE "31:cjc160_2984"
    INDEX 01 16:09:66
  TRACK 713 AUDIO
    TITLE "0:"
    INDEX 01 16:11:02
  TRACK 714 AUDIO
    TITLE "32:cjc160_2985"
    INDEX 01 16:11:53
  TRACK 715 AUDIO
    TITLE "0:"
    INDEX 01 16:12:66
  TRACK 716 AUDIO
    TITLE "33:cjc160_2986"
    INDEX 01 16:13:33
  TRACK 717 AUDIO
    TITLE "0:"
    INDEX 01 16:16:17
  TRACK 718 AUDIO
    TITLE "34:cjc160_2987"
    INDEX 01 16:16:60
  TRACK 719 AUDIO
    TITLE "0:"
    INDEX 01 16:19:37
  TRACK 720 AUDIO
    TITLE "35:cjc160_2988"
    INDEX 01 16:19:63
  TRACK 721 AUDIO
    TITLE "0:"
    INDEX 01 16:22:39
  TRACK 722 AUDIO
    TITLE "31:cjc160_2989"
    INDEX 01 16:23:41
  TRACK 723 AUDIO
    TITLE "0:"
    INDEX 01 16:24:54
  TRACK 724 AUDIO
    TITLE "32:cjc160_2990"
    INDEX 01 16:25:14
  TRACK 725 AUDIO
    TITLE "0:"
    INDEX 01 16:26:43
  TRACK 726 AUDIO
    TITLE "33:cjc160_2991"
    INDEX 01 16:27:07
  TRACK 727 AUDIO
    TITLE "0:"
    INDEX 01 16:29:30
  TRACK 728 AUDIO
    TITLE "34:cjc160_2992"
    INDEX 01 16:29:67
  TRACK 729 AUDIO
    TITLE "0:"
    INDEX 01 16:32:04
  TRACK 730 AUDIO
    TITLE "35:cjc160_2993"
    INDEX 01 16:32:30
  TRACK 731 AUDIO
    TITLE "0:"
    INDEX 01 16:34:42
  TRACK 732 AUDIO
    TITLE "31:cjc160_2994"
    INDEX 01 16:35:42
  TRACK 733 AUDIO
    TITLE "0:"
    INDEX 01 16:37:08
  TRACK 734 AUDIO
    TITLE "32:cjc160_2995"
    INDEX 01 16:37:45
  TRACK 735 AUDIO
    TITLE "0:"
    INDEX 01 16:38:46
  TRACK 736 AUDIO
    TITLE "33:cjc160_2996"
    INDEX 01 16:39:16
  TRACK 737 AUDIO
    TITLE "0:"
    INDEX 01 16:41:19
  TRACK 738 AUDIO
    TITLE "34:cjc160_2997"
    INDEX 01 16:41:58
  TRACK 739 AUDIO
    TITLE "0:"
    INDEX 01 16:44:02
  TRACK 740 AUDIO
    TITLE "35:cjc160_2998"
    INDEX 01 16:44:25
  TRACK 741 AUDIO
    TITLE "0:"
    INDEX 01 16:46:44
  TRACK 742 AUDIO
    TITLE "31:cjc160_2999"
    INDEX 01 16:47:45
  TRACK 743 AUDIO
    TITLE "0:"
    INDEX 01 16:49:09
  TRACK 744 AUDIO
    TITLE "32:cjc160_3000"
    INDEX 01 16:49:48
  TRACK 745 AUDIO
    TITLE "0:"
    INDEX 01 16:51:10
  TRACK 746 AUDIO
    TITLE "33:cjc160_3001"
    INDEX 01 16:51:51
  TRACK 747 AUDIO
    TITLE "0:"
    INDEX 01 16:55:29
  TRACK 748 AUDIO
    TITLE "34:cjc160_3002"
    INDEX 01 16:55:74
  TRACK 749 AUDIO
    TITLE "0:"
    INDEX 01 16:58:63
  TRACK 750 AUDIO
    TITLE "35:cjc160_3003"
    INDEX 01 16:59:19
  TRACK 751 AUDIO
    TITLE "0:"
    INDEX 01 17:02:07
  TRACK 752 AUDIO
    TITLE "31:cjc160_3004"
    INDEX 01 17:03:09
  TRACK 753 AUDIO
    TITLE "0:"
    INDEX 01 17:04:22
  TRACK 754 AUDIO
    TITLE "32:cjc160_3005"
    INDEX 01 17:04:59
  TRACK 755 AUDIO
    TITLE "0:"
    INDEX 01 17:06:68
  TRACK 756 AUDIO
    TITLE "33:cjc160_3006"
    INDEX 01 17:07:32
  TRACK 757 AUDIO
    TITLE "0:"
    INDEX 01 17:09:13
  TRACK 758 AUDIO
    TITLE "34:cjc160_3007"
    INDEX 01 17:09:53
  TRACK 759 AUDIO
    TITLE "0:"
    INDEX 01 17:11:52
  TRACK 760 AUDIO
    TITLE "35:cjc160_3008"
    INDEX 01 17:12:00
  TRACK 761 AUDIO
    TITLE "0:"
    INDEX 01 17:14:01
  TRACK 762 AUDIO
    TITLE "31:cjc160_3009"
    INDEX 01 17:15:02
  TRACK 763 AUDIO
    TITLE "0:"
    INDEX 01 17:16:66
  TRACK 764 AUDIO
    TITLE "32:cjc160_3010"
    INDEX 01 17:17:29
  TRACK 765 AUDIO
    TITLE "0:"
    INDEX 01 17:19:71
  TRACK 766 AUDIO
    TITLE "33:cjc160_3011"
    INDEX 01 17:20:35
  TRACK 767 AUDIO
    TITLE "0:"
    INDEX 01 17:23:43
  TRACK 768 AUDIO
    TITLE "34:cjc160_3012"
    INDEX 01 17:24:07
  TRACK 769 AUDIO
    TITLE "0:"
    INDEX 01 17:26:63
  TRACK 770 AUDIO
    TITLE "35:cjc160_3013"
    INDEX 01 17:27:13
  TRACK 771 AUDIO
    TITLE "0:"
    INDEX 01 17:29:67
  TRACK 772 AUDIO
    TITLE "31:cjc160_3014"
    INDEX 01 17:30:67
  TRACK 773 AUDIO
    TITLE "0:"
    INDEX 01 17:32:28
  TRACK 774 AUDIO
    TITLE "32:cjc160_3015"
    INDEX 01 17:32:73
  TRACK 775 AUDIO
    TITLE "0:"
    INDEX 01 17:35:60
  TRACK 776 AUDIO
    TITLE "33:cjc160_3016"
    INDEX 01 17:36:24
  TRACK 777 AUDIO
    TITLE "0:"
    INDEX 01 17:39:28
  TRACK 778 AUDIO
    TITLE "34:cjc160_3017"
    INDEX 01 17:39:65
  TRACK 779 AUDIO
    TITLE "0:"
    INDEX 01 17:41:70
  TRACK 780 AUDIO
    TITLE "35:cjc160_3018"
    INDEX 01 17:42:23
  TRACK 781 AUDIO
    TITLE "0:"
    INDEX 01 17:44:27
  TRACK 782 AUDIO
    TITLE "31:cjc160_3019"
    INDEX 01 17:45:31
  TRACK 783 AUDIO
    TITLE "0:"
    INDEX 01 17:46:50
  TRACK 784 AUDIO
    TITLE "32:cjc160_3020"
    INDEX 01 17:47:14
  TRACK 785 AUDIO
    TITLE "0:"
    INDEX 01 17:49:42
  TRACK 786 AUDIO
    TITLE "33:cjc160_3021"
    INDEX 01 17:50:06
  TRACK 787 AUDIO
    TITLE "0:"
    INDEX 01 17:52:33
  TRACK 788 AUDIO
    TITLE "34:cjc160_3022"
    INDEX 01 17:52:72
  TRACK 789 AUDIO
    TITLE "0:"
    INDEX 01 17:54:63
  TRACK 790 AUDIO
    TITLE "35:cjc160_3023"
    INDEX 01 17:55:14
  TRACK 791 AUDIO
    TITLE "0:"
    INDEX 01 17:57:03
  TRACK 792 AUDIO
    TITLE "31:cjc160_3024"
    INDEX 01 17:58:02
  TRACK 793 AUDIO
    TITLE "0:"
    INDEX 01 17:59:25
  TRACK 794 AUDIO
    TITLE "32:cjc160_3025"
    INDEX 01 17:59:62
  TRACK 795 AUDIO
    TITLE "0:"
    INDEX 01 18:04:24
  TRACK 796 AUDIO
    TITLE "33:cjc160_3026"
    INDEX 01 18:04:61
  TRACK 797 AUDIO
    TITLE "0:"
    INDEX 01 18:07:30
  TRACK 798 AUDIO
    TITLE "34:cjc160_3027"
    INDEX 01 18:07:72
  TRACK 799 AUDIO
    TITLE "0:"
    INDEX 01 18:10:58
  TRACK 800 AUDIO
    TITLE "35:cjc160_3028"
    INDEX 01 18:11:07
  TRACK 801 AUDIO
    TITLE "0:"
    INDEX 01 18:13:70
  TRACK 802 AUDIO
    TITLE "31:cjc160_3029"
    INDEX 01 18:14:70
  TRACK 803 AUDIO
    TITLE "0:"
    INDEX 01 18:16:24
  TRACK 804 AUDIO
    TITLE "32:cjc160_3030"
    INDEX 01 18:16:61
  TRACK 805 AUDIO
    TITLE "0:"
    INDEX 01 18:19:51
  TRACK 806 AUDIO
    TITLE "33:cjc160_3031"
    INDEX 01 18:20:23
  TRACK 807 AUDIO
    TITLE "0:"
    INDEX 01 18:22:30
  TRACK 808 AUDIO
    TITLE "34:cjc160_3032"
    INDEX 01 18:22:69
  TRACK 809 AUDIO
    TITLE "0:"
    INDEX 01 18:25:01
  TRACK 810 AUDIO
    TITLE "35:cjc160_3033"
    INDEX 01 18:25:28
  TRACK 811 AUDIO
    TITLE "0:"
    INDEX 01 18:27:33
  TRACK 812 AUDIO
    TITLE "31:cjc160_3034"
    INDEX 01 18:28:38
  TRACK 813 AUDIO
    TITLE "0:"
    INDEX 01 18:29:71
  TRACK 814 AUDIO
    TITLE "32:cjc160_3035"
    INDEX 01 18:30:35
  TRACK 815 AUDIO
    TITLE "0:"
    INDEX 01 18:31:41
  TRACK 816 AUDIO
    TITLE "33:cjc160_3036"
    INDEX 01 18:32:05
  TRACK 817 AUDIO
    TITLE "0:"
    INDEX 01 18:33:71
  TRACK 818 AUDIO
    TITLE "34:cjc160_3037"
    INDEX 01 18:34:35
  TRACK 819 AUDIO
    TITLE "0:"
    INDEX 01 18:36:30
  TRACK 820 AUDIO
    TITLE "35:cjc160_3038"
    INDEX 01 18:36:58
  TRACK 821 AUDIO
    TITLE "0:"
    INDEX 01 18:38:51
  TRACK 822 AUDIO
    TITLE "31:cjc160_3039"
    INDEX 01 18:39:50
  TRACK 823 AUDIO
    TITLE "0:"
    INDEX 01 18:41:08
  TRACK 824 AUDIO
    TITLE "32:cjc160_3040"
    INDEX 01 18:41:47
  TRACK 825 AUDIO
    TITLE "0:"
    INDEX 01 18:42:72
  TRACK 826 AUDIO
    TITLE "33:cjc160_3041"
    INDEX 01 18:43:36
  TRACK 827 AUDIO
    TITLE "0:"
    INDEX 01 18:46:27
  TRACK 828 AUDIO
    TITLE "34:cjc160_3042"
    INDEX 01 18:46:66
  TRACK 829 AUDIO
    TITLE "0:"
    INDEX 01 18:49:33
  TRACK 830 AUDIO
    TITLE "35:cjc160_3043"
    INDEX 01 18:49:58
  TRACK 831 AUDIO
    TITLE "0:"
    INDEX 01 18:52:25
  TRACK 832 AUDIO
    TITLE "31:cjc160_3044"
    INDEX 01 18:53:27
  TRACK 833 AUDIO
    TITLE "0:"
    INDEX 01 18:54:44
  TRACK 834 AUDIO
    TITLE "32:cjc160_3045"
    INDEX 01 18:55:08
  TRACK 835 AUDIO
    TITLE "0:"
    INDEX 01 18:58:10
  TRACK 836 AUDIO
    TITLE "33:cjc160_3046"
    INDEX 01 18:58:51
  TRACK 837 AUDIO
    TITLE "0:"
    INDEX 01 19:02:08
  TRACK 838 AUDIO
    TITLE "34:cjc160_3047"
    INDEX 01 19:02:45
  TRACK 839 AUDIO
    TITLE "0:"
    INDEX 01 19:05:30
  TRACK 840 AUDIO
    TITLE "35:cjc160_3048"
    INDEX 01 19:05:57
  TRACK 841 AUDIO
    TITLE "0:"
    INDEX 01 19:08:38
  TRACK 842 AUDIO
    TITLE "31:cjc160_3049"
    INDEX 01 19:09:39
  TRACK 843 AUDIO
    TITLE "0:"
    INDEX 01 19:10:62
  TRACK 844 AUDIO
    TITLE "32:cjc160_3050"
    INDEX 01 19:11:25
  TRACK 845 AUDIO
    TITLE "0:"
    INDEX 01 19:12:53
  TRACK 846 AUDIO
    TITLE "33:cjc160_3051"
    INDEX 01 19:13:18
  TRACK 847 AUDIO
    TITLE "0:"
    INDEX 01 19:15:73
  TRACK 848 AUDIO
    TITLE "34:cjc160_3052"
    INDEX 01 19:16:37
  TRACK 849 AUDIO
    TITLE "0:"
    INDEX 01 19:18:74
  TRACK 850 AUDIO
    TITLE "35:cjc160_3053"
    INDEX 01 19:19:22
  TRACK 851 AUDIO
    TITLE "0:"
    INDEX 01 19:21:58
  TRACK 852 AUDIO
    TITLE "31:cjc160_3054"
    INDEX 01 19:22:58
  TRACK 853 AUDIO
    TITLE "0:"
    INDEX 01 19:24:33
  TRACK 854 AUDIO
    TITLE "32:cjc160_3055"
    INDEX 01 19:24:74
  TRACK 855 AUDIO
    TITLE "0:"
    INDEX 01 19:28:03
  TRACK 856 AUDIO
    TITLE "33:cjc160_3056"
    INDEX 01 19:28:43
  TRACK 857 AUDIO
    TITLE "0:"
    INDEX 01 19:32:37
  TRACK 858 AUDIO
    TITLE "34:cjc160_3057"
    INDEX 01 19:33:05
  TRACK 859 AUDIO
    TITLE "0:"
    INDEX 01 19:35:09
  TRACK 860 AUDIO
    TITLE "35:cjc160_3058"
    INDEX 01 19:35:35
  TRACK 861 AUDIO
    TITLE "0:"
    INDEX 01 19:37:38
  TRACK 862 AUDIO
    TITLE "31:cjc160_3059"
    INDEX 01 19:38:41
  TRACK 863 AUDIO
    TITLE "0:"
    INDEX 01 19:40:05
  TRACK 864 AUDIO
    TITLE "32:cjc160_3060"
    INDEX 01 19:40:42
  TRACK 865 AUDIO
    TITLE "0:"
    INDEX 01 19:41:63
  TRACK 866 AUDIO
    TITLE "33:cjc160_3061"
    INDEX 01 19:42:29
  TRACK 867 AUDIO
    TITLE "0:"
    INDEX 01 19:45:06
  TRACK 868 AUDIO
    TITLE "34:cjc160_3062"
    INDEX 01 19:45:45
  TRACK 869 AUDIO
    TITLE "0:"
    INDEX 01 19:48:18
  TRACK 870 AUDIO
    TITLE "35:cjc160_3063"
    INDEX 01 19:48:43
  TRACK 871 AUDIO
    TITLE "0:"
    INDEX 01 19:51:16
  TRACK 872 AUDIO
    TITLE "31:cjc160_3064"
    INDEX 01 19:52:16
  TRACK 873 AUDIO
    TITLE "0:"
    INDEX 01 19:53:35
  TRACK 874 AUDIO
    TITLE "32:cjc160_3065"
    INDEX 01 19:53:72
  TRACK 875 AUDIO
    TITLE "0:"
    INDEX 01 19:56:25
  TRACK 876 AUDIO
    TITLE "33:cjc160_3066"
    INDEX 01 19:56:64
  TRACK 877 AUDIO
    TITLE "0:"
    INDEX 01 19:59:12
  TRACK 878 AUDIO
    TITLE "34:cjc160_3067"
    INDEX 01 19:59:51
  TRACK 879 AUDIO
    TITLE "0:"
    INDEX 01 20:02:26
  TRACK 880 AUDIO
    TITLE "35:cjc160_3068"
    INDEX 01 20:02:49
  TRACK 881 AUDIO
    TITLE "0:"
    INDEX 01 20:05:26
  TRACK 882 AUDIO
    TITLE "31:cjc160_3069"
    INDEX 01 20:06:26
  TRACK 883 AUDIO
    TITLE "0:"
    INDEX 01 20:07:41
  TRACK 884 AUDIO
    TITLE "32:cjc160_3070"
    INDEX 01 20:08:07
  TRACK 885 AUDIO
    TITLE "0:"
    INDEX 01 20:10:59
  TRACK 886 AUDIO
    TITLE "33:cjc160_3071"
    INDEX 01 20:11:23
  TRACK 887 AUDIO
    TITLE "0:"
    INDEX 01 20:13:18
  TRACK 888 AUDIO
    TITLE "34:cjc160_3072"
    INDEX 01 20:13:55
  TRACK 889 AUDIO
    TITLE "0:"
    INDEX 01 20:15:46
  TRACK 890 AUDIO
    TITLE "35:cjc160_3073"
    INDEX 01 20:16:01
  TRACK 891 AUDIO
    TITLE "0:"
    INDEX 01 20:17:69
  TRACK 892 AUDIO
    TITLE "31:cjc160_3074"
    INDEX 01 20:18:70
  TRACK 893 AUDIO
    TITLE "0:"
    INDEX 01 20:20:12
  TRACK 894 AUDIO
    TITLE "32:cjc160_3075"
    INDEX 01 20:20:51
  TRACK 895 AUDIO
    TITLE "0:"
    INDEX 01 20:21:74
  TRACK 896 AUDIO
    TITLE "33:cjc160_3076"
    INDEX 01 20:22:34
  TRACK 897 AUDIO
    TITLE "0:"
    INDEX 01 20:25:11
  TRACK 898 AUDIO
    TITLE "34:cjc160_3077"
    INDEX 01 20:25:50
  TRACK 899 AUDIO
    TITLE "0:"
    INDEX 01 20:28:15
  TRACK 900 AUDIO
    TITLE "35:cjc160_3078"
    INDEX 01 20:28:43
  TRACK 901 AUDIO
    TITLE "0:"
    INDEX 01 20:31:08
  TRACK 902 AUDIO
    TITLE "31:cjc160_3079"
    INDEX 01 20:32:11
  TRACK 903 AUDIO
    TITLE "0:"
    INDEX 01 20:33:26
  TRACK 904 AUDIO
    TITLE "32:cjc160_3080"
    INDEX 01 20:33:62
  TRACK 905 AUDIO
    TITLE "0:"
    INDEX 01 20:35:74
  TRACK 906 AUDIO
    TITLE "33:cjc160_3081"
    INDEX 01 20:36:40
  TRACK 907 AUDIO
    TITLE "0:"
    INDEX 01 20:39:33
  TRACK 908 AUDIO
    TITLE "34:cjc160_3082"
    INDEX 01 20:39:72
  TRACK 909 AUDIO
    TITLE "0:"
    INDEX 01 20:42:16
  TRACK 910 AUDIO
    TITLE "35:cjc160_3083"
    INDEX 01 20:42:43
  TRACK 911 AUDIO
    TITLE "0:"
    INDEX 01 20:44:61
  TRACK 912 AUDIO
    TITLE "31:cjc160_3084"
    INDEX 01 20:45:61
  TRACK 913 AUDIO
    TITLE "0:"
    INDEX 01 20:47:03
  TRACK 914 AUDIO
    TITLE "32:cjc160_3085"
    INDEX 01 20:47:42
  TRACK 915 AUDIO
    TITLE "0:"
    INDEX 01 20:48:48
  TRACK 916 AUDIO
    TITLE "33:cjc160_3086"
    INDEX 01 20:49:12
  TRACK 917 AUDIO
    TITLE "0:"
    INDEX 01 20:52:24
  TRACK 918 AUDIO
    TITLE "34:cjc160_3087"
    INDEX 01 20:52:63
  TRACK 919 AUDIO
    TITLE "0:"
    INDEX 01 20:55:08
  TRACK 920 AUDIO
    TITLE "35:cjc160_3088"
    INDEX 01 20:55:32
  TRACK 921 AUDIO
    TITLE "0:"
    INDEX 01 20:57:52
  TRACK 922 AUDIO
    TITLE "31:cjc160_3089"
    INDEX 01 20:58:52
  TRACK 923 AUDIO
    TITLE "0:"
    INDEX 01 21:00:06
  TRACK 924 AUDIO
    TITLE "32:cjc160_3090"
    INDEX 01 21:00:43
  TRACK 925 AUDIO
    TITLE "0:"
    INDEX 01 21:02:05
  TRACK 926 AUDIO
    TITLE "33:cjc160_3091"
    INDEX 01 21:02:42
  TRACK 927 AUDIO
    TITLE "0:"
    INDEX 01 21:05:05
  TRACK 928 AUDIO
    TITLE "34:cjc160_3092"
    INDEX 01 21:05:44
  TRACK 929 AUDIO
    TITLE "0:"
    INDEX 01 21:08:07
  TRACK 930 AUDIO
    TITLE "35:cjc160_3093"
    INDEX 01 21:08:33
  TRACK 931 AUDIO
    TITLE "0:"
    INDEX 01 21:10:69
  TRACK 932 AUDIO
    TITLE "31:cjc160_3094"
    INDEX 01 21:11:70
  TRACK 933 AUDIO
    TITLE "0:"
    INDEX 01 21:13:26
  TRACK 934 AUDIO
    TITLE "32:cjc160_3095"
    INDEX 01 21:13:65
  TRACK 935 AUDIO
    TITLE "0:"
    INDEX 01 21:18:45
  TRACK 936 AUDIO
    TITLE "33:cjc160_3096"
    INDEX 01 21:19:13
  TRACK 937 AUDIO
    TITLE "0:"
    INDEX 01 21:23:32
  TRACK 938 AUDIO
    TITLE "34:cjc160_3097"
    INDEX 01 21:23:69
  TRACK 939 AUDIO
    TITLE "0:"
    INDEX 01 21:27:61
  TRACK 940 AUDIO
    TITLE "35:cjc160_3098"
    INDEX 01 21:28:10
  TRACK 941 AUDIO
    TITLE "0:"
    INDEX 01 21:32:00
  TRACK 942 AUDIO
    TITLE "31:cjc160_3099"
    INDEX 01 21:32:74
  TRACK 943 AUDIO
    TITLE "0:"
    INDEX 01 21:34:22
  TRACK 944 AUDIO
    TITLE "32:cjc160_3100"
    INDEX 01 21:34:59
  TRACK 945 AUDIO
    TITLE "0:"
    INDEX 01 21:35:63
  TRACK 946 AUDIO
    TITLE "33:cjc160_3101"
    INDEX 01 21:36:25
  TRACK 947 AUDIO
    TITLE "0:"
    INDEX 01 21:39:10
  TRACK 948 AUDIO
    TITLE "34:cjc160_3102"
    INDEX 01 21:39:51
  TRACK 949 AUDIO
    TITLE "0:"
    INDEX 01 21:42:16
  TRACK 950 AUDIO
    TITLE "35:cjc160_3103"
    INDEX 01 21:42:45
  TRACK 951 AUDIO
    TITLE "0:"
    INDEX 01 21:45:10
  TRACK 952 AUDIO
    TITLE "31:cjc160_3104"
    INDEX 01 21:46:12
  TRACK 953 AUDIO
    TITLE "0:"
    INDEX 01 21:47:31
  TRACK 954 AUDIO
    TITLE "32:cjc160_3105"
    INDEX 01 21:47:74
  TRACK 955 AUDIO
    TITLE "0:"
    INDEX 01 21:49:08
  TRACK 956 AUDIO
    TITLE "33:cjc160_3106"
    INDEX 01 21:49:47
  TRACK 957 AUDIO
    TITLE "0:"
    INDEX 01 21:51:30
  TRACK 958 AUDIO
    TITLE "34:cjc160_3107"
    INDEX 01 21:51:68
  TRACK 959 AUDIO
    TITLE "0:"
    INDEX 01 21:54:19
  TRACK 960 AUDIO
    TITLE "35:cjc160_3108"
    INDEX 01 21:54:42
  TRACK 961 AUDIO
    TITLE "0:"
    INDEX 01 21:56:69
  TRACK 962 AUDIO
    TITLE "31:cjc160_3109"
    INDEX 01 21:57:68
  TRACK 963 AUDIO
    TITLE "0:"
    INDEX 01 21:59:16
  TRACK 964 AUDIO
    TITLE "32:cjc160_3110"
    INDEX 01 21:59:57
  TRACK 965 AUDIO
    TITLE "0:"
    INDEX 01 22:02:62
  TRACK 966 AUDIO
    TITLE "33:cjc160_3111"
    INDEX 01 22:03:26
  TRACK 967 AUDIO
    TITLE "0:"
    INDEX 01 22:05:25
  TRACK 968 AUDIO
    TITLE "34:cjc160_3112"
    INDEX 01 22:05:62
  TRACK 969 AUDIO
    TITLE "0:"
    INDEX 01 22:07:55
  TRACK 970 AUDIO
    TITLE "35:cjc160_3113"
    INDEX 01 22:08:03
  TRACK 971 AUDIO
    TITLE "0:"
    INDEX 01 22:09:70
  TRACK 972 AUDIO
    TITLE "31:cjc160_3114"
    INDEX 01 22:10:71
  TRACK 973 AUDIO
    TITLE "0:"
    INDEX 01 22:12:09
  TRACK 974 AUDIO
    TITLE "32:cjc160_3115"
    INDEX 01 22:12:54
  TRACK 975 AUDIO
    TITLE "0:"
    INDEX 01 22:15:74
  TRACK 976 AUDIO
    TITLE "33:cjc160_3116"
    INDEX 01 22:16:36
  TRACK 977 AUDIO
    TITLE "0:"
    INDEX 01 22:19:21
  TRACK 978 AUDIO
    TITLE "34:cjc160_3117"
    INDEX 01 22:19:60
  TRACK 979 AUDIO
    TITLE "0:"
    INDEX 01 22:22:13
  TRACK 980 AUDIO
    TITLE "35:cjc160_3118"
    INDEX 01 22:22:41
  TRACK 981 AUDIO
    TITLE "0:"
    INDEX 01 22:24:65
  TRACK 982 AUDIO
    TITLE "31:cjc160_3119"
    INDEX 01 22:25:65
  TRACK 983 AUDIO
    TITLE "0:"
    INDEX 01 22:27:15
  TRACK 984 AUDIO
    TITLE "32:cjc160_3120"
    INDEX 01 22:27:50
  TRACK 985 AUDIO
    TITLE "0:"
    INDEX 01 22:29:45
  TRACK 986 AUDIO
    TITLE "33:cjc160_3121"
    INDEX 01 22:30:07
  TRACK 987 AUDIO
    TITLE "0:"
    INDEX 01 22:33:25
  TRACK 988 AUDIO
    TITLE "34:cjc160_3122"
    INDEX 01 22:33:68
  TRACK 989 AUDIO
    TITLE "0:"
    INDEX 01 22:36:06
  TRACK 990 AUDIO
    TITLE "35:cjc160_3123"
    INDEX 01 22:36:29
  TRACK 991 AUDIO
    TITLE "0:"
    INDEX 01 22:38:44
  TRACK 992 AUDIO
    TITLE "31:cjc160_3124"
    INDEX 01 22:39:43
  TRACK 993 AUDIO
    TITLE "0:"
    INDEX 01 22:41:01
  TRACK 994 AUDIO
    TITLE "32:cjc160_3125"
    INDEX 01 22:41:40
  TRACK 995 AUDIO
    TITLE "0:"
    INDEX 01 22:43:00
  TRACK 996 AUDIO
    TITLE "33:cjc160_3126"
    INDEX 01 22:43:37
  TRACK 997 AUDIO
    TITLE "0:"
    INDEX 01 22:45:50
  TRACK 998 AUDIO
    TITLE "34:cjc160_3127"
    INDEX 01 22:46:16
  TRACK 999 AUDIO
    TITLE "0:"
    INDEX 01 22:48:28
  TRACK 1000 AUDIO
    TITLE "35:cjc160_3128"
    INDEX 01 22:48:52
  TRACK 1001 AUDIO
    TITLE "0:"
    INDEX 01 22:50:67
